<?xml version="1.0" encoding="UTF-8" standalone="no"?>
<svg
   fill="none"
   version="1.1"
   viewBox="0 0 33.799996 31.67"
   id="svg368"
   sodipodi:docname="OpenVPN_logoonly.svg"
   inkscape:version="1.1.2 (b8e25be833, 2022-02-05)"
   width="33.799999"
   height="31.67"
   xmlns:inkscape="http://www.inkscape.org/namespaces/inkscape"
   xmlns:sodipodi="http://sodipodi.sourceforge.net/DTD/sodipodi-0.dtd"
   xmlns="http://www.w3.org/2000/svg"
   xmlns:svg="http://www.w3.org/2000/svg"
   xmlns:rdf="http://www.w3.org/1999/02/22-rdf-syntax-ns#"
   xmlns:cc="http://creativecommons.org/ns#"
   xmlns:dc="http://purl.org/dc/elements/1.1/">
  <defs
     id="defs372" />
  <sodipodi:namedview
     id="namedview370"
     pagecolor="#ffffff"
     bordercolor="#666666"
     borderopacity="1.0"
     inkscape:pageshadow="2"
     inkscape:pageopacity="0.0"
     inkscape:pagecheckerboard="0"
     showgrid="false"
     inkscape:zoom="7.2497122"
     inkscape:cx="42.415477"
     inkscape:cy="15.862699"
     inkscape:window-width="1920"
     inkscape:window-height="1137"
     inkscape:window-x="-8"
     inkscape:window-y="-8"
     inkscape:window-maximized="1"
     inkscape:current-layer="svg368"
     height="31.67px"
     width="33.8px" />
  <title
     id="title354">OpenVPN logo</title>
  <path
     d="m 21.692,16.371 c 0,-2.7994 -2.2857,-5.0693 -5.1762,-5.0693 -2.8915,0 -5.1752,2.2611 -5.1752,5.0693 0,1.0374 0.32326,2.0493 0.92503,2.8925 a 4.9424,4.8722 0 0 0 2.4309,1.8071 l -2.0341,10.41 h 7.636 l -1.9634,-10.41 c 1.9625,-0.75304 3.356,-2.5121 3.356,-4.7006 z"
     fill="#1a3967"
     style="stroke-width:0.98756"
     id="path356" />
  <path
     d="m 32.897,16.295 c 0,-8.7561 -7.3137,-15.868 -16.308,-15.868 -8.9947,0 -16.311,7.1049 -16.311,15.868 0,5.8155 3.2107,10.876 7.995,13.602 L 9.2995,23.1137 A 9.5298,9.3944 0 0 1 6.8009,16.8344 c 0,-5.2046 4.3546,-9.4385 9.7068,-9.4385 5.3512,0 9.7078,4.2339 9.7078,9.4395 a 9.5765,9.4405 0 0 1 -2.4886,6.3538 l 1.0344,6.7833 c 4.8887,-2.7288 8.1363,-7.8599 8.1363,-13.675 m 21.843,5.8155 c 3.2873,0 5.9182,-2.5847 5.9182,-5.7429 0,-3.1573 -2.6418,-5.7302 -5.9182,-5.7302 -3.2764,0 -5.9172,2.5837 -5.9172,5.741 0,3.1583 2.6408,5.7439 5.9182,5.7439 v -0.01177 z m 0,4.6771 c -5.9172,0 -10.738,-4.6653 -10.738,-10.445 0,-5.7782 4.8211,-10.444 10.738,-10.444 5.9182,0 10.739,4.6653 10.739,10.444 0,5.7792 -4.8221,10.445 -10.739,10.445 z m 12.992,-20.254 v 19.703 a 0.35211,0.3471 0 0 0 0.09847,0.26082 0.33719,0.3324 0 0 0 0.25861,0.09805 h 3.8175 a 0.33221,0.32749 0 0 0 0.25861,-0.09805 0.34515,0.34024 0 0 0 0.09947,-0.26082 v -7.6079 h 4.098 c 0,0 5.7093,-0.28631 5.7093,-6.2812 0,-5.9939 -5.775,-6.243 -5.775,-6.243 h -8.2457 c -0.17705,0 -0.31928,0.14316 -0.31928,0.42947 z m 7.451,2.6445 c 0,0 2.9989,-0.070597 2.9989,3.1583 0,3.1583 -2.9989,3.1583 -2.9989,3.1583 h -2.984 V 9.4091 c 0,-0.28631 0.21882,-0.22062 0.21882,-0.22062 l 2.7651,-0.00687 z"
     fill="#ea7d1f"
     style="stroke-width:0.98756"
     id="path358" />
  <metadata
     id="metadata374">
    <rdf:RDF>
      <cc:Work
         rdf:about="">
        <dc:title>OpenVPN logo</dc:title>
      </cc:Work>
    </rdf:RDF>
  </metadata>
</svg>
