<?xml version="1.0" encoding="utf-8"?>
<!-- Generator: Adobe Illustrator 19.2.1, SVG Export Plug-In . SVG Version: 6.00 Build 0)  -->
<svg version="1.1" id="layer" xmlns="http://www.w3.org/2000/svg" xmlns:xlink="http://www.w3.org/1999/xlink" x="0px" y="0px"
	 viewBox="0 0 652 652" style="enable-background:new 0 0 652 652;" xml:space="preserve">
<style type="text/css">
	.st0{clip-path:url(#SVGID_2_);fill:#898B8D;}
	.st1{clip-path:url(#SVGID_2_);fill:url(#SVGID_3_);}
	.st2{clip-path:url(#SVGID_2_);fill:url(#SVGID_4_);}
	.st3{fill:#403F41;}
	.st4{clip-path:url(#SVGID_6_);fill:#898B8D;}
	.st5{clip-path:url(#SVGID_6_);fill:url(#SVGID_7_);}
	.st6{clip-path:url(#SVGID_6_);fill:url(#SVGID_8_);}
	.st7{clip-path:url(#SVGID_10_);fill:#58595B;}
	.st8{clip-path:url(#SVGID_10_);fill:url(#SVGID_11_);}
	.st9{clip-path:url(#SVGID_13_);fill:#58595B;}
	.st10{clip-path:url(#SVGID_13_);fill:url(#SVGID_14_);}
	.st11{clip-path:url(#SVGID_16_);fill:#58595B;}
	.st12{clip-path:url(#SVGID_16_);fill:url(#SVGID_17_);}
	.st13{clip-path:url(#SVGID_19_);fill:#58595B;}
	.st14{clip-path:url(#SVGID_19_);fill:url(#SVGID_20_);}
	.st15{fill:url(#SVGID_21_);}
	.st16{fill:url(#SVGID_22_);}
	.st17{fill:url(#SVGID_23_);}
	.st18{fill:url(#SVGID_24_);}
	.st19{fill:#E24525;}
	.st20{fill:#808183;}
</style>
<g>
	<g>
		<defs>
			<path id="SVGID_1_" d="M38.8,284.1v-4.8h0c0-0.4,0.1-1.1,0.1-1.1l0.2-0.5l0,0l0,0l0-0.1v0l0-0.1l0,0l0.2-0.4v0l0.1-0.1l0,0
				l0.1-0.2l0,0l0.1-0.1l0,0l0-0.1l0,0l0.1-0.1l0,0l0,0l0,0l0.1-0.1l0,0l0-0.1l0.1-0.1l0,0l0,0l0,0l0.1-0.1l0,0l0,0l0,0l0,0l0.1-0.1
				l0,0l0.1-0.1l0,0l0,0l0,0l0.1-0.1l0,0l0.1-0.1l0,0l0.1-0.1l0,0l0.2-0.1l0,0l0.1,0l0,0l0.3-0.2l0.1,0l0,0l0.1,0l0.1,0L42,275h0
				l0,0l0,0c0.4-0.1,0.7-0.1,1.1-0.1l0,0h94.6v9.2h9v-9.2v-0.1v-9.1H43.1v0c-7.3,0-13.3,6.1-13.3,13.6l0,0v4.8H38.8z"/>
		</defs>
		<clipPath id="SVGID_2_">
			<use xlink:href="#SVGID_1_"  style="overflow:visible;"/>
		</clipPath>
		<rect x="30.2" y="264.7" class="st0" width="117.1" height="12"/>
		
			<linearGradient id="SVGID_3_" gradientUnits="userSpaceOnUse" x1="-2420.1841" y1="800.0927" x2="-2399.5776" y2="800.0927" gradientTransform="matrix(0.1869 0.3575 -0.6751 0.353 1132.8214 856.1406)">
			<stop  offset="0" style="stop-color:#737373"/>
			<stop  offset="1" style="stop-color:#333333"/>
		</linearGradient>
		<polygon class="st1" points="137.5,284.2 133.8,277 147,269.9 150.7,277.1 		"/>
		
			<linearGradient id="SVGID_4_" gradientUnits="userSpaceOnUse" x1="-2367.5842" y1="2162.55" x2="-2347.0557" y2="2162.55" gradientTransform="matrix(-0.1861 0.3579 -0.5495 -0.2858 785.0239 1739.3784)">
			<stop  offset="0" style="stop-color:#737373"/>
			<stop  offset="1" style="stop-color:#333333"/>
		</linearGradient>
		<polygon class="st2" points="28.2,278.4 31.9,271.1 42.6,276.9 38.9,284.1 		"/>
	</g>
	<rect x="47.8" y="284.1" class="st3" width="80.9" height="9.2"/>
	<rect x="47.8" y="358" class="st3" width="80.9" height="9.2"/>
	<g>
		<defs>
			<path id="SVGID_5_" d="M137.7,367.2v4.8h0c0,0.4-0.1,1.1-0.1,1.1l-0.2,0.5l0,0l0,0l0,0.1v0l0,0.1l0,0l-0.2,0.4l0,0l-0.1,0.1l0,0
				l-0.1,0.2l0,0l-0.1,0.1l0,0l0,0.1l0,0l-0.1,0.1l0,0l0,0l0,0l-0.1,0.1l0,0l0,0.1l-0.1,0.1l0,0l0,0l0,0l-0.1,0.1l0,0l0,0l0,0l0,0
				l-0.1,0.1l0,0l-0.1,0.1l0,0l0,0l0,0l-0.1,0.1l0,0l-0.1,0l0,0l-0.1,0.1l0,0l-0.2,0.1l0,0l-0.1,0.1l0,0l-0.3,0.2l-0.1,0l0,0l-0.1,0
				l-0.1,0l-0.5,0.2h0l0,0l0,0c-0.4,0.1-0.7,0.1-1.1,0.1v0H38.8v-9.2h-9v9.2v0.1v9.1h103.6v0c7.3,0,13.3-6.1,13.3-13.6l0,0v-4.8
				H137.7z"/>
		</defs>
		<clipPath id="SVGID_6_">
			<use xlink:href="#SVGID_5_"  style="overflow:visible;"/>
		</clipPath>
		<rect x="29.2" y="374.6" class="st4" width="117.1" height="12"/>
		
			<linearGradient id="SVGID_7_" gradientUnits="userSpaceOnUse" x1="1480.1002" y1="2100.9509" x2="1500.7019" y2="2100.9509" gradientTransform="matrix(-0.1869 -0.3575 0.6751 -0.353 -1105.5302 1648.7344)">
			<stop  offset="0" style="stop-color:#737373"/>
			<stop  offset="1" style="stop-color:#333333"/>
		</linearGradient>
		<polygon class="st5" points="39,367.1 42.7,374.4 29.5,381.5 25.8,374.2 		"/>
		
			<linearGradient id="SVGID_8_" gradientUnits="userSpaceOnUse" x1="1879.6393" y1="995.7422" x2="1900.1664" y2="995.7422" gradientTransform="matrix(0.1861 -0.3579 0.5495 0.2858 -757.7326 765.4966)">
			<stop  offset="0" style="stop-color:#737373"/>
			<stop  offset="1" style="stop-color:#333333"/>
		</linearGradient>
		<polygon class="st6" points="148.4,372.9 144.7,380.2 133.9,374.4 137.6,367.2 		"/>
	</g>
	<g>
		<defs>
			<rect id="SVGID_9_" x="38.8" y="302.6" width="34.6" height="9.2"/>
		</defs>
		<clipPath id="SVGID_10_">
			<use xlink:href="#SVGID_9_"  style="overflow:visible;"/>
		</clipPath>
		<rect x="38.8" y="302.6" class="st7" width="34.6" height="9.2"/>
		
			<linearGradient id="SVGID_11_" gradientUnits="userSpaceOnUse" x1="2723.9924" y1="2479.9973" x2="2762.0139" y2="2479.9973" gradientTransform="matrix(-1.5212 -1.021 3.1403 1.519 -3559.3472 -659.4107)">
			<stop  offset="0.107" style="stop-color:#58595B"/>
			<stop  offset="1" style="stop-color:#000000"/>
		</linearGradient>
		<polygon class="st8" points="73.5,311.8 69.7,319.2 38.4,302.4 42.1,295 		"/>
	</g>
	<g>
		<defs>
			<rect id="SVGID_12_" x="103.1" y="302.6" width="34.6" height="9.2"/>
		</defs>
		<clipPath id="SVGID_13_">
			<use xlink:href="#SVGID_12_"  style="overflow:visible;"/>
		</clipPath>
		<rect x="103.1" y="302.6" class="st9" width="34.6" height="9.2"/>
		
			<linearGradient id="SVGID_14_" gradientUnits="userSpaceOnUse" x1="2369.7166" y1="2241.8674" x2="2407.7356" y2="2241.8674" gradientTransform="matrix(1.5212 -1.021 -3.1403 1.519 3527.0171 -659.4107)">
			<stop  offset="0.107" style="stop-color:#58595B"/>
			<stop  offset="1" style="stop-color:#000000"/>
		</linearGradient>
		<polygon class="st10" points="103.1,311.8 106.8,319.2 138.2,302.4 134.4,295 		"/>
	</g>
	<g>
		<defs>
			<rect id="SVGID_15_" x="103.1" y="339.5" width="34.6" height="9.2"/>
		</defs>
		<clipPath id="SVGID_16_">
			<use xlink:href="#SVGID_15_"  style="overflow:visible;"/>
		</clipPath>
		<rect x="103.1" y="339.5" class="st11" width="34.6" height="9.2"/>
		
			<linearGradient id="SVGID_17_" gradientUnits="userSpaceOnUse" x1="-2720.5295" y1="-204.9241" x2="-2682.5107" y2="-204.9241" gradientTransform="matrix(1.5212 1.021 -3.1403 -1.519 3586.6382 2791.1953)">
			<stop  offset="0.107" style="stop-color:#58595B"/>
			<stop  offset="1" style="stop-color:#000000"/>
		</linearGradient>
		<polygon class="st12" points="103.1,339.5 106.8,332.1 138.2,348.9 134.4,356.3 		"/>
	</g>
	<g>
		<defs>
			<rect id="SVGID_18_" x="38.8" y="339.5" width="34.6" height="9.2"/>
		</defs>
		<clipPath id="SVGID_19_">
			<use xlink:href="#SVGID_18_"  style="overflow:visible;"/>
		</clipPath>
		<rect x="38.8" y="339.5" class="st13" width="34.6" height="9.2"/>
		
			<linearGradient id="SVGID_20_" gradientUnits="userSpaceOnUse" x1="-2568.5095" y1="-102.7411" x2="-2530.4883" y2="-102.7411" gradientTransform="matrix(-1.5212 1.021 3.1403 -1.519 -3499.7261 2791.1953)">
			<stop  offset="0.107" style="stop-color:#58595B"/>
			<stop  offset="1" style="stop-color:#000000"/>
		</linearGradient>
		<polygon class="st14" points="73.5,339.5 69.7,332.1 38.4,348.9 42.1,356.3 		"/>
	</g>
	<linearGradient id="SVGID_21_" gradientUnits="userSpaceOnUse" x1="29.8447" y1="295.5312" x2="73.4027" y2="295.5312">
		<stop  offset="0.2373" style="stop-color:#A6A8AB"/>
		<stop  offset="1" style="stop-color:#404040"/>
	</linearGradient>
	<polygon class="st15" points="73.4,311.8 29.8,288.5 29.8,279.3 73.4,302.6 	"/>
	
		<linearGradient id="SVGID_22_" gradientUnits="userSpaceOnUse" x1="-287.8741" y1="295.5312" x2="-244.3161" y2="295.5312" gradientTransform="matrix(-1 0 0 1 -141.1816 0)">
		<stop  offset="0.2373" style="stop-color:#A6A8AB"/>
		<stop  offset="1" style="stop-color:#404040"/>
	</linearGradient>
	<polygon class="st16" points="103.1,311.8 146.7,288.5 146.7,279.3 103.1,302.6 	"/>
	
		<linearGradient id="SVGID_23_" gradientUnits="userSpaceOnUse" x1="-119.4025" y1="1846.0156" x2="-75.8446" y2="1846.0156" gradientTransform="matrix(-1 0 0 -1 27.29 2201.8047)">
		<stop  offset="0.2373" style="stop-color:#A6A8AB"/>
		<stop  offset="1" style="stop-color:#404040"/>
	</linearGradient>
	<polygon class="st17" points="103.1,339.5 146.7,362.8 146.7,372.1 103.1,348.8 	"/>
	
		<linearGradient id="SVGID_24_" gradientUnits="userSpaceOnUse" x1="-138.627" y1="1846.0156" x2="-95.069" y2="1846.0156" gradientTransform="matrix(1 0 0 -1 168.4717 2201.8047)">
		<stop  offset="0.2373" style="stop-color:#A6A8AB"/>
		<stop  offset="1" style="stop-color:#404040"/>
	</linearGradient>
	<polygon class="st18" points="73.4,339.5 29.8,362.8 29.8,372.1 73.4,348.8 	"/>
	<polygon class="st19" points="146.7,321 120.4,321 128.7,316.6 128.7,307.4 103.1,321 103.1,321 103.1,321 103.1,330.3 
		103.1,330.3 103.1,330.3 103.1,330.3 128.7,344 128.7,334.7 120.4,330.3 146.7,330.3 	"/>
	<polygon class="st19" points="47.8,307.4 47.8,316.6 56.2,321 29.8,321 29.8,330.3 56.1,330.3 47.8,334.7 47.8,344 73.4,330.3 
		73.4,330.3 73.4,330.3 73.4,330.3 73.4,321 73.4,321 73.4,321 	"/>
</g>
<path class="st20" d="M239.6,273.1h-50.4c-7.4,0-13.4,6-13.4,13.4v86v4.6h4.6h50.4c7.4,0,13.4-6,13.4-13.5v-86v-4.6H239.6
	L239.6,273.1z M347.1,377.5h-4.5H338v-4.5v-86c0-3.7,1.5-7.1,3.9-9.5c2.4-2.4,5.8-3.9,9.5-3.9l0,0h50.4h4.5v4.5v86
	c0,11.8-9.5,13.7-18.7,13.7c-1.5,0-3.4-0.1-5.2-0.2c-1.1-0.1-2.2-0.1-3.5-0.1v-4.5v-4.5c0.9,0,2.3,0.1,3.8,0.1
	c1.4,0.1,2.9,0.1,4.8,0.1c4.7,0,9.6-0.6,9.6-4.6v-81.5h-43.6h-2.3l-0.2,0h0l-0.1,0l0,0l0,0l0,0l0,0h0l0,0l0,0l0,0l0,0l0,0l0,0l0,0
	l0,0l0,0l0,0l0,0l0,0l0,0l0,0l0,0l0,0l0,0l0,0l0,0l0,0l0,0l0,0l0,0l0,0l0,0l0,0l0,0l0,0l0,0l0,0l0,0l0,0h0l-0.1,0l0,0l0,0l0,0l0,0
	l0,0l0,0l0,0l0,0l0,0l0,0l0,0l0,0l0,0l0,0l0,0l0,0l0,0l0,0l0,0l0,0l0,0l0,0l0,0l0,0l0,0l0,0l0,0l0,0l0,0l0,0l-0.1,0l0,0l0,0l0,0l0,0
	l0,0l0,0l0,0l0,0l0,0l0,0l0,0l0,0l0,0l0,0l0,0l0,0l0,0l0,0l0,0l0,0l0,0l0,0l0,0l0,0l0,0l0,0l0,0l0,0l0,0l0,0l0,0l0,0l0,0l0,0l0,0
	l0,0l0,0l0,0l0,0l0,0l0,0l0,0l0,0l0,0l0,0l0,0l0,0h0l0,0c-0.8,0.8-1.3,1.9-1.3,3.1 M318.8,273.2H271c-6.9,0-12.6,5.6-12.6,12.6v45.4
	v4.6h0v41.2h9.1v-41.2h43.2c6.9,0,12.6-5.7,12.6-12.6v-45.4v-4.6H318.8L318.8,273.2z M271,282.3h43.2v40.8c0,0.2,0,0.3,0,0.5v0
	l0,0.1v0l0,0.1l0,0l0,0.1l0,0l0,0l0,0.1v0l0,0.1l0,0l0,0l0,0.1l0,0l0,0l0,0.1l0,0l0,0.1l0,0l0,0.1l0,0l0,0.1l0,0l0,0l0,0l-0.1,0.1
	l0,0l0,0.1l0,0l0,0l0,0l-0.1,0.1l0,0l0,0h0l0,0.1l0,0l0,0l0,0l0,0.1l-0.1,0.1l0,0l-0.1,0.1l0,0l-0.1,0.2l-0.1,0.1l-0.1,0.1l-0.2,0.1
	l0,0l0,0l-0.1,0.1l0,0l0,0l0,0l-0.1,0.1l0,0l0,0l0,0l-0.1,0l0,0l-0.2,0.1l0,0l-0.1,0.1l0,0l-0.1,0l0,0c-0.1,0-0.2,0.1-0.3,0.1
	l-0.1,0l0,0l-0.1,0l-0.1,0l-0.1,0h0l-0.1,0h0c-0.2,0-0.3,0-0.5,0h-43.2v-40.8c0-0.2,0-0.3,0-0.5l0,0l0-0.1v0l0-0.1l0-0.1l0,0l0-0.1
	l0,0l0-0.1l0.1-0.2l0,0l0,0l0,0l0-0.1l0,0l0-0.1l0,0l0.1-0.1l0,0l0.1-0.2l0,0l0-0.1l0,0l0,0l0,0l0.1-0.1l0,0l0,0l0,0l0.1-0.1
	l0.1-0.1l0.1-0.1l0,0l0.1-0.1l0,0l0.1-0.1l0.1-0.1l0,0l0.1-0.1l0,0l0.1-0.1l0,0l0.1,0l0,0l0.1,0l0,0l0,0l0,0l0.1-0.1l0,0l0,0l0,0
	l0.1,0l0,0l0.1-0.1l0,0l0,0l0,0l0.1,0l0,0l0.1,0l0.1,0l0.1,0l0,0l0.2,0l0.1,0l0,0l0.1,0l0,0l0,0l0,0l0.1,0l0,0l0.1,0l0,0l0.1,0l0,0
	C270.7,282.4,270.9,282.3,271,282.3L271,282.3z M314.2,323.7L314.2,323.7L314.2,323.7L314.2,323.7z M314.2,323.7L314.2,323.7
	L314.2,323.7L314.2,323.7z M314.1,323.8L314.1,323.8L314.1,323.8L314.1,323.8z M314.1,323.9L314.1,323.9L314.1,323.9L314.1,323.9z
	 M314.1,324L314.1,324L314.1,324L314.1,324z M314.1,324.1L314.1,324.1L314.1,324.1L314.1,324.1z M314.1,324.2L314.1,324.2
	L314.1,324.2L314.1,324.2z M314,324.2L314,324.2L314,324.2L314,324.2z M314,324.3L314,324.3L314,324.3L314,324.3z M314,324.4
	L314,324.4L314,324.4L314,324.4z M313.9,324.5L313.9,324.5L313.9,324.5L313.9,324.5z M313.9,324.6L313.9,324.6L313.9,324.6
	L313.9,324.6z M313.8,324.7L313.8,324.7L313.8,324.7L313.8,324.7z M313.8,324.8L313.8,324.8L313.8,324.8L313.8,324.8z M313.8,324.8
	L313.8,324.8L313.8,324.8L313.8,324.8z M313.7,325L313.7,325L313.7,325L313.7,325z M313.7,325L313.7,325L313.7,325L313.7,325z
	 M313.6,325.1L313.6,325.1L313.6,325.1L313.6,325.1z M313.6,325.1L313.6,325.1L313.6,325.1L313.6,325.1z M313.5,325.3L313.5,325.3
	L313.5,325.3L313.5,325.3z M313.4,325.4L313.4,325.4L313.4,325.4L313.4,325.4z M312.8,325.9L312.8,325.9L312.8,325.9L312.8,325.9z
	 M312.7,326L312.7,326L312.7,326L312.7,326z M312.7,326L312.7,326L312.7,326L312.7,326z M312.5,326.1L312.5,326.1L312.5,326.1
	L312.5,326.1z M312.5,326.1L312.5,326.1L312.5,326.1L312.5,326.1z M312.4,326.2L312.4,326.2L312.4,326.2L312.4,326.2z M312.1,326.3
	L312.1,326.3L312.1,326.3L312.1,326.3z M311.6,326.5L311.6,326.5L311.6,326.5L311.6,326.5z M311.4,326.5L311.4,326.5L311.4,326.5
	L311.4,326.5z M311.3,326.6L311.3,326.6L311.3,326.6L311.3,326.6z M267.6,285.3L267.6,285.3L267.6,285.3L267.6,285.3z M267.6,285.2
	L267.6,285.2L267.6,285.2L267.6,285.2z M267.7,285L267.7,285L267.7,285L267.7,285z M267.7,284.9L267.7,284.9L267.7,284.9
	L267.7,284.9z M267.9,284.4L267.9,284.4L267.9,284.4L267.9,284.4z M268,284.1L268,284.1L268,284.1L268,284.1z M268,284.1L268,284.1
	L268,284.1L268,284.1z M268.1,284L268.1,284L268.1,284L268.1,284z M268.1,283.9L268.1,283.9L268.1,283.9L268.1,283.9z M268.2,283.8
	L268.2,283.8L268.2,283.8L268.2,283.8z M268.4,283.5L268.4,283.5L268.4,283.5L268.4,283.5z M268.5,283.5L268.5,283.5L268.5,283.5
	L268.5,283.5z M268.8,283.2L268.8,283.2L268.8,283.2L268.8,283.2z M268.9,283.1L268.9,283.1L268.9,283.1L268.9,283.1z M269,283
	L269,283L269,283L269,283z M269.2,282.9L269.2,282.9L269.2,282.9L269.2,282.9z M269.2,282.9L269.2,282.9L269.2,282.9L269.2,282.9z
	 M269.3,282.8L269.3,282.8L269.3,282.8L269.3,282.8z M269.4,282.8L269.4,282.8L269.4,282.8L269.4,282.8z M269.4,282.7L269.4,282.7
	L269.4,282.7L269.4,282.7z M269.6,282.7L269.6,282.7L269.6,282.7L269.6,282.7z M269.7,282.6L269.7,282.6L269.7,282.6L269.7,282.6z
	 M270.2,282.4L270.2,282.4L270.2,282.4L270.2,282.4z M270.3,282.4L270.3,282.4L270.3,282.4L270.3,282.4z M270.3,282.4L270.3,282.4
	L270.3,282.4L270.3,282.4z M270.4,282.4L270.4,282.4L270.4,282.4L270.4,282.4z M270.4,282.4L270.4,282.4L270.4,282.4L270.4,282.4z
	 M270.5,282.4L270.5,282.4L270.5,282.4L270.5,282.4z M189.2,282.2H235v81.5c0,0.4-0.1,1.1-0.1,1.1l-0.2,0.5l0,0l0,0l0,0l0,0l0,0
	l0,0.1v0l0,0.1l0,0l-0.2,0.3v0l-0.1,0.1l0,0l-0.1,0.2l0,0l-0.1,0.1l0,0l-0.1,0.1l0,0l-0.1,0.1l0,0l0,0l0,0l-0.1,0.1l0,0l0,0.1
	l-0.1,0.1l0,0l0,0l0,0l-0.1,0.1l0,0l0,0l0,0l0,0l-0.1,0.1l0,0l-0.1,0.1l0,0l0,0l0,0l-0.1,0.1l0,0l-0.1,0l0,0l-0.1,0.1l0,0l-0.2,0.1
	l0,0l-0.1,0.1l0,0l-0.3,0.2l-0.1,0l0,0l-0.1,0l-0.1,0l-0.5,0.2h0l0,0l0,0h0l0,0c-0.4,0.1-0.7,0.1-1.1,0.1h-45.9v-81.5
	c0-0.4,0.1-1.1,0.1-1.1l0.2-0.5v0l0,0l0,0l0,0l0,0l0-0.1v0l0-0.1l0,0l0.2-0.3l0,0l0.1-0.1l0,0l0.1-0.2l0,0l0.1-0.1l0,0l0.1-0.1l0,0
	l0.1-0.1l0,0l0,0l0,0l0.1-0.1l0,0l0-0.1l0.1-0.1l0,0l0,0l0,0l0.1-0.1l0,0l0,0l0,0l0,0l0.1-0.1l0,0l0.1-0.1l0,0l0,0l0,0l0.1-0.1l0,0
	l0.1,0l0,0l0.1-0.1l0,0l0.2-0.1l0,0l0.1-0.1l0,0l0.3-0.2l0.1,0h0l0.1,0l0.1,0l0.5-0.2h0l0,0l0,0h0l0,0
	C188.4,282.2,188.8,282.2,189.2,282.2L189.2,282.2z M234.7,365.3L234.7,365.3L234.7,365.3L234.7,365.3z M234.7,365.4L234.7,365.4
	L234.7,365.4L234.7,365.4z M234.6,365.4L234.6,365.4L234.6,365.4L234.6,365.4z M234.4,365.8L234.4,365.8L234.4,365.8L234.4,365.8z
	 M234.4,365.9L234.4,365.9L234.4,365.9L234.4,365.9z M234.3,366.1L234.3,366.1L234.3,366.1L234.3,366.1z M234.2,366.2L234.2,366.2
	L234.2,366.2L234.2,366.2z M234.1,366.3L234.1,366.3L234.1,366.3L234.1,366.3z M234.1,366.4L234.1,366.4L234.1,366.4L234.1,366.4z
	 M234,366.4L234,366.4L234,366.4L234,366.4z M233.9,366.6L233.9,366.6L233.9,366.6L233.9,366.6z M233.8,366.6L233.8,366.6
	L233.8,366.6L233.8,366.6z M233.7,366.8L233.7,366.8L233.7,366.8L233.7,366.8z M233.6,366.8L233.6,366.8L233.6,366.8L233.6,366.8z
	 M233.4,367L233.4,367L233.4,367L233.4,367z M233.4,367L233.4,367L233.4,367L233.4,367z M233.3,367.1L233.3,367.1L233.3,367.1
	L233.3,367.1z M233.2,367.2L233.2,367.2L233.2,367.2L233.2,367.2z M233.1,367.3L233.1,367.3L233.1,367.3L233.1,367.3z M232.9,367.4
	L232.9,367.4L232.9,367.4L232.9,367.4z M232.8,367.4L232.8,367.4L232.8,367.4L232.8,367.4z M232.4,367.6L232.4,367.6L232.4,367.6
	L232.4,367.6z M231.8,367.9L231.8,367.9L231.8,367.9L231.8,367.9z M185.1,284.9L185.1,284.9L185.1,284.9L185.1,284.9z M185.2,284.8
	L185.2,284.8L185.2,284.8L185.2,284.8z M185.2,284.7L185.2,284.7L185.2,284.7L185.2,284.7z M185.4,284.4L185.4,284.4L185.4,284.4
	L185.4,284.4z M185.4,284.3L185.4,284.3L185.4,284.3L185.4,284.3z M185.5,284.1L185.5,284.1L185.5,284.1L185.5,284.1z M185.6,284
	L185.6,284L185.6,284L185.6,284z M185.7,283.9L185.7,283.9L185.7,283.9L185.7,283.9z M185.8,283.8L185.8,283.8L185.8,283.8
	L185.8,283.8z M185.8,283.8L185.8,283.8L185.8,283.8L185.8,283.8z M186,283.6L186,283.6L186,283.6L186,283.6z M186,283.5L186,283.5
	L186,283.5L186,283.5z M186.2,283.4L186.2,283.4L186.2,283.4L186.2,283.4z M186.2,283.3L186.2,283.3L186.2,283.3L186.2,283.3z
	 M186.4,283.2L186.4,283.2L186.4,283.2L186.4,283.2z M186.4,283.1L186.4,283.1L186.4,283.1L186.4,283.1z M186.5,283.1L186.5,283.1
	L186.5,283.1L186.5,283.1z M186.6,283L186.6,283L186.6,283L186.6,283z M186.7,282.9L186.7,282.9L186.7,282.9L186.7,282.9z
	 M186.9,282.8L186.9,282.8L186.9,282.8L186.9,282.8z M187,282.8L187,282.8L187,282.8L187,282.8z M187.4,282.5L187.4,282.5
	L187.4,282.5L187.4,282.5z M188.1,282.3L188.1,282.3L188.1,282.3L188.1,282.3z M621.5,304.3c1.4,0,2.8,0.4,4.1,1.1
	c1.3,0.7,2.4,1.7,3.1,3.1c0.7,1.3,1.1,2.7,1.1,4.2c0,1.4-0.4,2.8-1.1,4.1c-0.7,1.3-1.8,2.4-3.1,3.1c-1.3,0.7-2.7,1.1-4.2,1.1
	c-1.4,0-2.8-0.4-4.2-1.1c-1.3-0.7-2.4-1.8-3.1-3.1c-0.7-1.3-1.1-2.7-1.1-4.1c0-1.4,0.4-2.8,1.1-4.2c0.7-1.3,1.8-2.4,3.1-3.1
	C618.7,304.7,620.1,304.3,621.5,304.3L621.5,304.3z M621.5,305.7c-1.2,0-2.3,0.3-3.4,0.9c-1.1,0.6-2,1.5-2.6,2.6
	c-0.6,1.1-0.9,2.3-0.9,3.5c0,1.2,0.3,2.4,0.9,3.5c0.6,1.1,1.5,2,2.6,2.6c1.1,0.6,2.3,0.9,3.5,0.9c1.2,0,2.4-0.3,3.5-0.9
	c1.1-0.6,2-1.5,2.6-2.6c0.6-1.1,0.9-2.3,0.9-3.5c0-1.2-0.3-2.4-0.9-3.5c-0.6-1.1-1.5-2-2.6-2.6C623.8,306,622.7,305.7,621.5,305.7
	L621.5,305.7z M624.9,315.5c-0.4-0.8-1-1.4-1.3-1.7c-0.2-0.2-0.4-0.4-0.8-0.5c0.8-0.1,1.4-0.3,1.9-0.8c0.5-0.5,0.7-1.1,0.7-1.7
	c0-0.5-0.1-0.9-0.4-1.3c-0.3-0.4-0.7-0.7-1.1-0.9c-0.5-0.2-1.2-0.2-2.3-0.2h-3.1v9h1.4v-3.8h0.9c0.5,0,0.9,0.2,1.1,0.4
	c0.4,0.3,1.1,1.1,1.4,1.8c0.3,0.5,0.5,1.5,0.5,1.5h1.8C625.5,317.2,625.3,316.2,624.9,315.5z M621.6,312.2h-1.8v-2.7h1.6
	c0.7,0,1.2,0.1,1.5,0.2c0.3,0.1,0.5,0.3,0.6,0.5c0.1,0.2,0.2,0.4,0.2,0.7c0,0.4-0.2,0.7-0.5,1C623,312,622.5,312.2,621.6,312.2z"/>
<path class="st19" d="M450.3,340h-14.6V337c0-2.5-0.1-4.1-0.4-4.8c-0.3-0.7-1-1-2.1-1c-0.9,0-1.6,0.3-2.1,0.9
	c-0.5,0.6-0.7,1.5-0.7,2.8c0,1.7,0.1,2.9,0.3,3.7c0.2,0.8,0.9,1.6,2.1,2.6c1.1,0.9,3.5,2.3,7.1,4.1c4.8,2.3,7.9,4.6,9.4,6.6
	c1.5,2.1,2.2,5.1,2.2,9c0,4.4-0.6,7.8-1.7,10c-1.1,2.2-3.1,4-5.7,5.2c-2.7,1.2-5.9,1.8-9.7,1.8c-4.2,0-7.8-0.7-10.8-2
	c-3-1.3-5-3.1-6.2-5.3c-1.1-2.2-1.7-5.6-1.7-10.1v-2.6h14.7v3.4c0,2.9,0.2,4.8,0.5,5.7c0.4,0.9,1.1,1.3,2.2,1.3c1.2,0,2-0.3,2.4-0.9
	c0.5-0.6,0.7-1.8,0.7-3.7c0-2.6-0.3-4.2-0.9-4.9c-0.6-0.7-3.8-2.6-9.6-5.8c-4.8-2.7-7.8-5.2-8.9-7.4c-1.1-2.2-1.6-4.9-1.6-7.9
	c0-4.3,0.6-7.5,1.7-9.6c1.1-2.1,3.1-3.7,5.8-4.8c2.7-1.1,5.9-1.7,9.5-1.7c3.6,0,6.7,0.5,9.2,1.4c2.5,0.9,4.5,2.1,5.8,3.6
	c1.3,1.5,2.2,2.9,2.4,4.2c0.3,1.3,0.4,3.3,0.4,6V340L450.3,340z M493.5,350.7H472v11.8c0,2.5,0.2,4,0.5,4.8c0.4,0.7,1,1.1,2.1,1.1
	c1.3,0,2.1-0.5,2.5-1.4c0.4-1,0.6-2.8,0.6-5.5v-6.8h15.7v3.7c0,3.4-0.2,5.9-0.6,7.7c-0.4,1.8-1.4,3.7-3,5.8
	c-1.5,2.1-3.5,3.6-5.9,4.6c-2.4,1-5.4,1.5-9,1.5c-3.5,0-6.6-0.5-9.3-1.5c-2.7-1-4.7-2.4-6.2-4.1c-1.5-1.8-2.5-3.7-3.1-5.8
	c-0.6-2.1-0.9-5.2-0.9-9.2v-15.8c0-4.7,0.6-8.5,1.9-11.2c1.3-2.7,3.4-4.8,6.3-6.3c2.9-1.5,6.3-2.2,10.1-2.2c4.6,0,8.5,0.9,11.5,2.6
	c3,1.8,5.1,4.1,6.4,7c1.2,2.9,1.8,7,1.8,12.2V350.7L493.5,350.7z M477,341.9v-4c0-2.8-0.2-4.6-0.5-5.4c-0.3-0.8-0.9-1.2-1.9-1.2
	c-1.2,0-1.9,0.4-2.2,1c-0.3,0.7-0.4,2.6-0.4,5.6v4H477L477,341.9z M515.6,322.6l-0.3,4.1c1.7-2,2.5-2.7,4.2-3.7
	c1.7-1,3.9-1.4,6.2-1.4c2.8,0,5.1,0.7,7,2c1.8,1.3,3,3,3.5,5.1c0.5,2,0.8,5.4,0.8,10.2v38.1h-16.5v-37.6c0-3.7-0.1-6-0.4-6.8
	c-0.2-0.8-0.9-1.2-2.1-1.2c-1.2,0-1.9,0.5-2.2,1.4c-0.3,1-0.4,3.5-0.4,7.6v36.7h-16.5v-54.3H515.6L515.6,322.6z M576.4,340h-14.6
	V337c0-2.5-0.1-4.1-0.4-4.8c-0.3-0.7-1-1-2.1-1c-0.9,0-1.6,0.3-2.1,0.9c-0.5,0.6-0.7,1.5-0.7,2.8c0,1.7,0.1,2.9,0.3,3.7
	c0.2,0.8,0.9,1.6,2.1,2.6c1.1,0.9,3.5,2.3,7.1,4.1c4.8,2.3,7.9,4.6,9.4,6.6c1.5,2.1,2.2,5.1,2.2,9c0,4.4-0.6,7.8-1.7,10
	c-1.1,2.2-3.1,4-5.7,5.2c-2.7,1.2-5.9,1.8-9.7,1.8c-4.2,0-7.8-0.7-10.8-2c-3-1.3-5-3.1-6.2-5.3c-1.1-2.2-1.7-5.6-1.7-10.1v-2.6h14.7
	v3.4c0,2.9,0.2,4.8,0.5,5.7c0.4,0.9,1.1,1.3,2.2,1.3c1.2,0,2-0.3,2.4-0.9c0.5-0.6,0.7-1.8,0.7-3.7c0-2.6-0.3-4.2-0.9-4.9
	c-0.6-0.7-3.8-2.6-9.6-5.8c-4.8-2.7-7.8-5.2-8.9-7.4c-1.1-2.2-1.6-4.9-1.6-7.9c0-4.3,0.6-7.5,1.7-9.6c1.1-2.1,3.1-3.7,5.8-4.8
	c2.7-1.1,5.9-1.7,9.5-1.7c3.6,0,6.7,0.5,9.2,1.4c2.5,0.9,4.5,2.1,5.8,3.6c1.3,1.5,2.2,2.9,2.4,4.2c0.3,1.3,0.4,3.3,0.4,6V340
	L576.4,340z M619.5,350.7h-21.4v11.8c0,2.5,0.2,4,0.5,4.8c0.4,0.7,1,1.1,2.1,1.1c1.3,0,2.1-0.5,2.5-1.4c0.4-1,0.6-2.8,0.6-5.5v-6.8
	h15.7v3.7c0,3.4-0.2,5.9-0.6,7.7c-0.4,1.8-1.4,3.7-3,5.8c-1.5,2.1-3.5,3.6-5.9,4.6c-2.4,1-5.4,1.5-9,1.5c-3.5,0-6.6-0.5-9.3-1.5
	c-2.7-1-4.7-2.4-6.2-4.1c-1.5-1.8-2.5-3.7-3.1-5.8c-0.6-2.1-0.9-5.2-0.9-9.2v-15.8c0-4.7,0.6-8.5,1.9-11.2c1.3-2.7,3.4-4.8,6.3-6.3
	c2.9-1.5,6.3-2.2,10.1-2.2c4.6,0,8.5,0.9,11.5,2.6c3,1.8,5.1,4.1,6.4,7c1.2,2.9,1.8,7,1.8,12.2V350.7L619.5,350.7z M603,341.9v-4
	c0-2.8-0.2-4.6-0.5-5.4c-0.3-0.8-0.9-1.2-1.9-1.2c-1.2,0-1.9,0.4-2.2,1c-0.3,0.7-0.4,2.6-0.4,5.6v4H603L603,341.9z"/>
</svg>
